<?xml version="1.0" standalone="no"?>
<!DOCTYPE svg PUBLIC "-//W3C//DTD SVG 20010904//EN"
        "http://www.w3.org/TR/2001/REC-SVG-20010904/DTD/svg10.dtd">
<svg version="1.0" xmlns="http://www.w3.org/2000/svg"
     width="363.000000pt" height="275.000000pt" viewBox="0 0 363.000000 275.000000"
     preserveAspectRatio="xMidYMid meet">

    <g transform="translate(0.000000,275.000000) scale(0.100000,-0.100000)"
       fill="#000000" stroke="none">
        <path d="M1745 2370 c-38 -15 -65 -57 -85 -126 -33 -121 -33 -120 -97 -139
-237 -68 -42 -142 346 -133 205 6 314 24 358 62 l26 22 -26 20 c-14 11 -51 26
-84 34 -32 7 -60 15 -62 17 -2 1 -10 43 -17 93 -6 50 -17 97 -24 105 -32 38
-161 34 -262 -9 -21 -9 -48 -16 -60 -16 -13 1 13 13 57 27 l80 26 -40 13 c-47
15 -82 16 -110 4z m-22 -283 c73 -10 232 -2 370 19 35 6 37 5 37 -19 0 -22 -7
-28 -37 -37 -123 -34 -325 -36 -431 -5 -45 14 -52 19 -52 41 0 21 4 25 18 19
9 -4 52 -12 95 -18z"/>
        <path d="M2481 1673 c-60 -21 -124 -88 -145 -150 -15 -45 -16 -103 -14 -514 3
-455 3 -465 25 -504 51 -95 127 -140 230 -138 34 1 70 6 80 12 15 8 27 1 70
-41 l51 -51 66 59 66 59 -46 46 -47 47 2 487 c2 554 2 554 -74 630 -69 70
-169 91 -264 58z m136 -177 l28 -24 3 -414 c2 -227 0 -428 -3 -446 -12 -67
-78 -94 -123 -52 l-22 21 0 449 0 449 26 20 c35 27 57 26 91 -3z"/>
        <path d="M840 1030 l0 -641 81 3 80 3 -1 326 c0 272 2 328 14 338 9 7 39 11
78 9 l63 -3 3 -338 2 -337 85 0 85 0 0 640 0 640 -85 0 -85 0 -2 -217 -3 -218
-63 -3 c-38 -2 -69 2 -78 9 -11 9 -14 53 -14 220 l0 209 -80 0 -80 0 0 -640z"/>
        <path d="M1512 1588 l3 -83 118 -3 117 -3 0 -554 0 -555 85 0 85 0 0 555 0
554 108 3 107 3 3 83 3 82 -316 0 -316 0 3 -82z"/>
    </g>
</svg>
